<?xml version="1.0" encoding="UTF-8"?>
<svg id="Capa_1" data-name="Capa 1" xmlns="http://www.w3.org/2000/svg" viewBox="0 0 1381.49 970.09">
  <defs>
    <style>
      .cls-1 {
        fill: #1e120d;
      }

      .cls-2 {
        fill: #FF640D;
      }
    </style>
  </defs>
  <path class="cls-1" d="M1381.49,163.04V807.58c-.7,4.22-1.41,8.43-2.1,12.65-2.85,17.24-8.58,33.48-16.83,48.88-14.71,27.47-35.59,49.22-61.43,66.33-19.5,12.92-40.66,22.17-63.37,27.85-17.01,4.25-34.21,6.78-51.79,6.78-329.28-.04-658.56-.05-987.83,.03-12.94,0-25.69-1.16-38.41-3.37-19.34-3.35-37.81-9.29-55.49-17.79-26.91-12.94-49.94-30.82-68.5-54.23-13.06-16.48-22.96-34.7-28.95-54.96C2.59,825.57,0,811.22,0,796.35,.07,588.35,.06,380.34,.02,172.34c0-12.21,2.1-24.1,5.13-35.81,4.66-17.97,12.47-34.58,22.91-49.94,11.35-16.69,25.07-31.12,41.24-43.23,.38,.07,.55-.13,.58-.48,1.32-1,2.64-2,3.97-3l.14,.09,.11-.16c1.12-.8,2.24-1.59,3.36-2.39,.41,.12,.54-.11,.57-.45,.63-.43,1.26-.86,1.88-1.29,.32-.19,.64-.37,.95-.56,1.17-.76,2.35-1.53,3.52-2.29,0,0,.15,.09,.15,.09l.07-.15c.52-.34,1.04-.68,1.55-1.02,0,0,.15,.04,.15,.04,0,0,.04-.15,.04-.15l1.9-1.14c.63-.38,1.26-.77,1.89-1.15,1.02-.57,2.04-1.13,3.05-1.7l.18,.02v-.18c.71-.36,1.42-.73,2.13-1.09l.18,.04v-.19c.65-.37,1.29-.73,1.94-1.1,4.71-1.76,9.11-4.17,13.59-6.42,.95-.41,1.91-.83,2.86-1.24,6.9-2.47,13.79-4.93,20.69-7.4,.94-.27,1.88-.54,2.82-.82,5.3-1.34,10.6-2.68,15.9-4.03,1-.19,2-.38,3-.57,1.24,.2,2.37-.09,3.43-.71,1.21-.17,2.42-.35,3.63-.52,1.41,.32,2.68-.26,4-.59,1.03-.15,2.05-.31,3.08-.46,2.32,.08,4.61-.04,6.85-.75,1.64-.15,3.28-.3,4.9-.45,4.56,.31,9.11-.36,13.68-.36,25.81,0,51.61,.08,77.42,.08,302.83,0,605.67,0,908.5-.02,2.1,0,4.28,.42,6.31-.56,4.1,1.18,8.34,.55,12.51,.92,21.09,1.86,41.59,6.32,61.34,14.02,21.52,8.39,41.2,19.87,58.73,34.93,18.11,15.56,32.89,33.78,43.64,55.15,6.24,12.4,10.85,25.39,13.72,39.02,1.31,6.19,1.67,12.53,3.24,18.65ZM693.55,64.59c-169.82,0-339.64,0-509.46,.01-4.59,0-9.16-.04-13.76,.34-26.1,2.15-48.84,11.67-67.09,30.74-14.2,14.85-22.08,32.68-22.09,53.3-.11,224.42-.07,448.84-.05,673.26,0,4.59,.57,9.17,1.44,13.67,3.12,16.1,10.79,29.88,22.41,41.31,20.4,20.06,45.48,29.3,73.7,29.31,342.96,.13,685.92,.09,1028.88,.04,9.77,0,19.49-1.15,28.96-3.73,18.49-5.04,34.67-14.06,47.69-28.29,13.35-14.58,21.06-31.55,21.07-51.58,.02-224.62,0-449.23,.04-673.85,0-19.15-6.53-35.81-18.9-50.07-19.92-22.98-45.86-34.23-75.77-34.29-172.36-.35-344.72-.17-517.08-.17Z"/>
  <path class="cls-2" d="M1188.5,0l.03,.26s-.22,.08-.23,.08c-2.03,.99-4.22,.56-6.32,.56-302.83,.03-605.67,.03-908.5,.02-25.81,0-51.61-.07-77.42-.08-4.57,0-9.12,.67-13.68,.36,1.15-.59,2.95,.77,3.61-1.21h1002.5Z"/>
  <path class="cls-2" d="M693.55,64.59c172.36,0,344.72-.18,517.08,.17,29.91,.06,55.86,11.31,75.77,34.29,12.36,14.27,18.9,30.92,18.9,50.07-.05,224.62-.02,449.23-.04,673.85,0,20.03-7.72,37-21.07,51.58-13.02,14.23-29.2,23.25-47.69,28.29-9.47,2.58-19.19,3.73-28.96,3.73-342.96,.05-685.92,.09-1028.88-.04-28.22-.01-53.3-9.25-73.7-29.31-11.62-11.43-19.29-25.21-22.41-41.31-.87-4.49-1.44-9.07-1.44-13.67-.02-224.42-.06-448.84,.05-673.26,0-20.62,7.88-38.45,22.09-53.3,18.25-19.07,40.99-28.59,67.09-30.74,4.59-.38,9.17-.34,13.76-.34,169.82-.02,339.64-.01,509.46-.01Zm-228.47,802.98c103.53,0,207.05,0,310.58,0,15.12,0,27.07-12,27.07-27.19,0-74.09,0-148.17,.02-222.26,0-3.06-.37-6.03-1.13-8.98-2.53-9.8-11.72-18.1-21.75-19.2-9.44-1.04-18.94-.23-28.41-.42-3.88-.08-3.89-.01-3.89-3.81,0-31.28,0-62.55,0-93.83q0-5.6-5.54-5.6-4.07,0-4.07-4.22c0-72.42,0-144.84,0-217.26q0-7.24-7.23-7.24-4.28,0-4.28-4.28c0-37.04-.02-74.09,.06-111.13,0-2.67-.68-3.45-3.43-3.41-11.63,.17-23.27,.07-34.9,.07q-3.74,0-3.74,3.85c0,36.07,0,72.13,0,108.2,0,6.69,0,6.82-6.55,6.64-2.85-.08-3.87,.59-3.87,3.69,.09,72.91,.07,145.83,.07,218.74q0,6.35-6.34,6.35-4.23,0-4.22,4.09c0,31.86-.03,63.73,.06,95.59,0,2.83-.8,3.68-3.64,3.61-7.23-.19-14.47-.11-21.7-.03-1.82,.02-3.06-.6-4.31-1.93-6.53-6.99-13.16-13.89-19.77-20.82-9.84-10.32-19.69-20.62-29.51-30.95-16.42-17.26-32.82-34.54-49.22-51.82-10.28-10.84-20.54-21.7-30.83-32.54-.55-.58-.96-1.77-1.98-1.28-.77,.37-.35,1.42-.36,2.17-.09,36.26-.18,72.51-.25,108.77-.02,8.59,.02,17.18-.41,25.77-.1,2.07-.81,2.71-2.81,2.63-3.22-.13-6.46-.17-9.67,.01-2.19,.12-3.66-.75-5.09-2.26-16.29-17.25-32.61-34.48-48.95-51.69-9.89-10.41-19.83-20.77-29.73-31.17-16.63-17.47-33.23-34.97-49.87-52.43-.55-.58-.98-1.79-1.98-1.4-1,.39-.52,1.55-.52,2.36-.17,22.86-.34,45.72-.47,68.58-.13,21.59-.22,43.19-.32,64.78,0,.29-.02,.59,0,.88,.16,1.8-.67,2.38-2.43,2.33-3.61-.1-7.24-.13-10.85,0-2.03,.08-3.5-.56-4.89-2.03-8.39-8.87-16.86-17.66-25.27-26.51-16.41-17.28-32.79-34.59-49.2-51.86-6.12-6.45-12.33-12.81-18.45-19.26-12.02-12.68-24.01-25.39-36.03-38.08-.51-.54-.97-1.49-1.85-1.19-.91,.31-.63,1.32-.65,2.06-.11,4.88-.26,9.76-.28,14.64-.13,39.58-.23,79.15-.33,118.73,0,.1-.01,.2,0,.29,.43,2.67-.83,3.24-3.33,3.22-14.76-.11-29.52-.07-44.28-.05-7.6,0-14.1,2.72-19.39,8.2-5.84,6.06-7.82,13.5-7.8,21.7,.05,18.18,.01,36.36,.01,54.54,0,55.12,.01,110.25-.01,165.37,0,16.31,12.49,28.39,28.19,28.35,103.23-.21,206.47-.11,309.7-.11ZM182.03,277.21c0,41.83,0,83.67-.01,125.5,0,1.84-.22,3.3,2.6,3.28,19.45-.13,38.91-.09,58.36-.03,2.14,0,2.9-.59,2.87-2.82-.12-7.82-.05-15.64-.05-23.46,0-25.02,0-50.04,0-75.07q0-3.86,3.96-3.86c4.69,0,9.39,.14,14.08-.06,2.48-.1,3.95,.88,5.28,2.83,23.07,33.75,46.19,67.47,69.25,101.22,1.17,1.71,2.41,2.4,4.52,2.39,21.31-.08,42.62-.05,63.94-.07,.84,0,1.94,.46,2.47-.37,.69-1.08-.53-1.78-1.03-2.49-14.19-20.2-28.43-40.36-42.65-60.54-11.58-16.43-23.12-32.88-34.75-49.27-1.53-2.15-1.06-2.95,1.3-3.56,6.45-1.66,12.59-4.16,18.49-7.22,16.78-8.7,27.95-21.89,32.16-40.54,2.97-13.14,2.84-26.31,.12-39.5-2.17-10.53-6.39-20.05-13.55-28.13-11.84-13.38-27.56-19.34-44.47-22.82-15.18-3.12-30.6-3.73-46.05-3.74-31.19-.03-62.37,.04-93.56-.08-2.87-.01-3.32,.92-3.32,3.48,.07,41.64,.05,83.28,.05,124.91Zm917.74-123.63c-11.14,0-22.29,.02-33.43-.02-1.62,0-2.67,.18-3.1,2.16-.61,2.84-1.71,5.59-2.6,8.37-4.51,14.1-9.04,28.2-13.51,42.31-4.49,14.21-8.87,28.46-13.38,42.67-5.27,16.62-10.66,33.21-15.93,49.83-5.33,16.8-10.55,33.64-15.87,50.45-5.62,17.74-11.28,35.47-16.96,53.2-.68,2.11-.34,2.96,2.14,2.93,9.19-.12,18.38-.05,27.57-.05,11.24,0,22.48,0,33.73,0,1.44,0,2.95,.28,3.27-1.92,1.14-7.82,2.4-15.63,3.62-23.44,1.22-7.81,2.45-15.61,3.68-23.42,.32-2.03,1.06-3.2,3.58-3.19,22.97,.11,45.94,.08,68.92,.03,1.89,0,2.93,.6,3.35,2.44,.8,3.52,1.7,7.01,2.53,10.52,2.85,12.05,5.71,24.1,8.54,36.16,.45,1.93,1.28,2.88,3.58,2.87,20.82-.11,41.64-.06,62.47-.06,3.17,0,3.44-.42,2.5-3.34-1.89-5.84-3.75-11.69-5.6-17.54-4.82-15.24-9.6-30.49-14.44-45.72-4.51-14.21-9.09-28.41-13.6-42.62-5.37-16.91-10.68-33.83-16.03-50.74-5.26-16.63-10.54-33.25-15.82-49.87-4.16-13.1-8.43-26.17-12.43-39.32-.71-2.34-1.79-2.76-3.92-2.75-10.95,.08-21.9,.04-32.85,.04Zm-487.59,251.85c10.56,0,21.11-.04,31.67,.03,2.13,.02,2.74-.36,1.96-2.61-1.85-5.34-3.41-10.78-5.11-16.17-4.77-15.16-9.52-30.32-14.33-45.46-4.11-12.91-8.35-25.78-12.44-38.7-5.71-18.02-11.29-36.09-16.99-54.11-6.44-20.35-12.97-40.67-19.43-61.01-3.28-10.31-6.48-20.64-9.74-30.96-.5-1.56-.89-2.94-3.26-2.93-22.29,.11-44.57,.08-66.86,.03-1.87,0-2.83,.6-3.38,2.42-1.83,6.07-3.81,12.09-5.71,18.13-7.18,22.79-14.32,45.59-21.53,68.37-5.71,18.03-11.54,36.02-17.25,54.05-6.44,20.36-12.78,40.75-19.22,61.11-4.82,15.24-9.7,30.46-14.6,45.68-.53,1.65-.32,2.22,1.63,2.21,20.23-.08,40.47-.07,60.7-.08q4.27,0,4.94-4.17c2.4-15.03,4.85-30.05,7.13-45.09,.33-2.21,1.27-2.67,3.24-2.67,22.97,.04,45.94,.05,68.92,0,2.17,0,3.02,.75,3.53,2.88,3.66,15.48,7.52,30.91,11.16,46.39,.52,2.22,1.5,2.72,3.59,2.7,10.46-.09,20.92-.04,31.38-.04Zm212.84,253.81c0,4.2,0,8.4,0,12.6,0,1.69,.43,2.58,2.52,2.59,14.46,.05,28.91,.08,43.37,.41,15.82,.36,31.64,.39,47.46,.65,22.18,.37,44.36,.41,66.54,.61,1.75,.02,3.52,.05,5.26,.27,2,.25,2.82-.37,2.83-2.49,.03-6.87,1.1-13.64,2.64-20.3,4.25-18.39,13.29-34.26,25.94-48.13,1.32-1.44,1.41-2.44,.43-4.02-4.57-7.38-9.04-14.82-13.56-22.24-15.66-25.75-31.33-51.49-46.98-77.24-7.55-12.42-15.06-24.86-22.56-37.3-.93-1.55-1.56-2.6-3.71-1.21-26.64,17.18-50.46,37.43-69.49,63-18.65,25.06-30.82,52.98-36.81,83.57-3.18,16.23-4.58,32.66-3.89,49.22Zm415.33,14.12c3.32,0,6.65-.04,9.97,.02,1.43,.03,2.16-.38,2.22-1.95,.13-3.11,.56-6.22,.59-9.33,.21-19.27-1.17-38.37-5.25-57.28-4.26-19.79-11.13-38.53-20.95-56.2-20.18-36.34-49.55-63.7-84.15-85.95-2.05-1.32-2.98-.65-4.04,1.12-5.48,9.11-11.03,18.18-16.54,27.26-21.64,35.67-43.27,71.35-64.92,107.02-2.7,4.45-2.73,4.43,.52,8.21,.89,1.04,1.75,2.1,2.62,3.15,14.88,18.14,23.34,38.78,24.17,62.36,.09,2.6,1,3.52,3.7,3.46,16.79-.34,33.59-.57,50.39-.72,14.75-.14,29.5-.22,44.25-.43,19.14-.27,38.28-.36,57.42-.76Zm-364.33-265.56c5.86-.03,11.7-.16,17.55-.59,5.88-.44,11.7-1.25,17.29-2.92,19.11-5.7,35.26-16.17,47.94-31.56,10.97-13.32,17.87-28.31,16.69-46.11-1.11-16.68-7.25-31.29-18.59-43.53-8.47-9.15-19.45-14.55-30.84-19.13-8.73-3.51-17.85-5.62-27.05-7.48-10.14-2.05-20.22-4.36-30.34-6.5-8.27-1.75-16.18-4.43-23.35-8.97-10.4-6.59-15.21-16.55-13.03-26.6,3.55-16.32,17.05-27.25,33.78-27.42,16.69-.16,33.14,1.51,49.17,6.38,8.75,2.66,17.23,5.81,23.25,13.25,.83,1.03,1.53,1.19,2.69,.36,8.5-6.08,17.02-12.12,25.59-18.09,1.58-1.1,1.48-1.98,.31-3.26-1.84-2.02-3.53-4.18-5.37-6.19-11.35-12.39-25.08-21.06-41.26-25.53-18.24-5.04-36.9-5.9-55.73-5.06-15.3,.68-29.93,3.93-43.71,10.67-19.88,9.73-34.37,24.48-41.68,45.65-4.74,13.73-5.08,27.82-1.98,41.89,2.13,9.66,6.93,17.93,14.62,24.43,7.36,6.23,15.9,10.23,24.83,13.43,17.8,6.39,36.13,11.22,53.9,17.72,10.33,3.78,20.66,7.47,30.5,12.58,16.89,8.77,15.54,32.15,3.39,41.57-8.23,6.38-17.71,8.86-27.84,9.2-7.02,.24-14.05,.11-21.07-.48-11.79-1-23.5-2.44-34.78-6.16-9.99-3.29-19.24-7.74-25.06-17.16-.89-1.44-1.71-.66-2.63,0-7.69,5.54-15.36,11.09-23.12,16.53-1.64,1.15-1.65,2.1-.6,3.58,2.88,4.06,5.79,8.1,8.96,11.94,13.76,16.7,31.58,26.37,52.67,30.26,14.84,2.74,29.87,3.24,44.91,3.29Zm175.28,454.89c4.09-.28,8.18-.46,12.26-.87,16.66-1.69,32.95-5.16,48.84-10.45,14.1-4.69,27.58-10.79,40.75-17.61,1.89-.98,2.64-2.06,1.05-4.03-1.09-1.35-1.86-2.97-2.78-4.46-12.59-20.42-25.18-40.85-37.77-61.27-13.77-22.33-27.56-44.66-41.32-67-.81-1.32-1.63-1.85-3.31-1.49-6.01,1.28-12.08,2.2-18.23,2.69-13.17,1.06-26.14-.15-38.93-3.22-2.15-.52-3.06-.12-4.14,1.74-13.01,22.32-26.12,44.59-39.19,66.88-12.97,22.12-25.88,44.28-38.9,66.37-1.24,2.1-1.12,2.97,1.19,4.12,15.31,7.58,31,14.11,47.4,19.01,11.43,3.41,23.02,6.1,34.81,7.67,12.67,1.68,25.43,2.68,38.26,1.94Zm12.64-206.99c0-13.31-10.68-23.99-23.97-23.95-13.19,.03-24.16,11.06-23.94,24.08,.22,13.22,10.82,23.76,23.92,23.81,13.28,.05,23.99-10.64,23.99-23.94ZM705.66,118.54c6.44,.14,12.37-1.53,17.6-5.29,9.07-6.53,10.28-17.48,2.88-25.33-10.02-10.62-31.5-10.42-41.36,.39-6.51,7.14-5.68,17.78,1.88,23.85,5.55,4.45,11.9,6.53,18.99,6.38Z"/>
  <path class="cls-2" d="M114.09,17.5c6.68-3.1,13.57-5.6,20.7-7.41-6.91,2.47-13.8,4.94-20.7,7.41Z"/>
  <path class="cls-2" d="M97.64,25.15c4.42-2.4,8.9-4.66,13.6-6.42-4.49,2.25-8.89,4.66-13.6,6.42Z"/>
  <path class="cls-2" d="M137.6,9.28c5.15-1.95,10.53-3.02,15.91-4.03-5.31,1.35-10.61,2.69-15.91,4.03Z"/>
  <path class="cls-2" d="M170.64,2.4c2.29-.25,4.53-.93,6.86-.75-2.24,.7-4.54,.83-6.86,.75Z"/>
  <path class="cls-2" d="M163.56,3.45c1.34-.17,2.59-.98,4.01-.59-1.32,.33-2.6,.91-4.01,.59Z"/>
  <path class="cls-2" d="M156.49,4.68c1.15-.24,2.3-.48,3.44-.71-1.07,.63-2.21,.91-3.44,.71Z"/>
  <path class="cls-2" d="M88.27,30.5c.58-.49,1.09-1.08,1.9-1.16-.64,.39-1.27,.77-1.9,1.16Z"/>
  <path class="cls-2" d="M79.92,35.68c.19-.42,.5-.62,.96-.56-.32,.19-.64,.38-.96,.56Z"/>
  <path class="cls-2" d="M69.3,43.37c.06-.32,.19-.57,.59-.49-.03,.36-.2,.55-.59,.49Z"/>
  <path class="cls-2" d="M77.46,37.42c.19-.15,.39-.31,.58-.46-.04,.35-.17,.58-.58,.46Z"/>
  <polygon class="cls-2" points="93.21 27.65 93.21 27.46 93.4 27.49 93.39 27.66 93.21 27.65"/>
  <polygon class="cls-2" points="95.52 26.4 95.54 26.22 95.71 26.25 95.7 26.44 95.52 26.4"/>
  <polygon class="cls-2" points="84.39 32.83 84.47 32.68 84.62 32.76 84.55 32.92 84.39 32.83"/>
  <polygon class="cls-2" points="86.17 31.74 86.21 31.58 86.37 31.63 86.32 31.78 86.17 31.74"/>
  <polygon class="cls-2" points="73.85 39.89 73.94 39.71 74.1 39.81 73.99 39.98 73.85 39.89"/>
  <path class="cls-2" d="M84.76,966.04c.95,1.63,1.56,2.56,1.16,3.69-.07,.21-1.31,.36-1.57,.1-1.2-1.18,.53-1.94,.41-3.79Z"/>
  <path class="cls-1" d="M465.08,867.57c-103.23,0-206.47-.1-309.7,.11-15.7,.03-28.19-12.04-28.19-28.35,.02-55.12,0-110.25,.01-165.37,0-18.18,.03-36.36-.01-54.54-.02-8.2,1.96-15.64,7.8-21.7,5.28-5.48,11.78-8.19,19.39-8.2,14.76-.02,29.52-.06,44.28,.05,2.5,.02,3.76-.55,3.33-3.22-.02-.1,0-.2,0-.29,.11-39.58,.21-79.16,.33-118.73,.02-4.88,.17-9.76,.28-14.64,.02-.74-.26-1.75,.65-2.06,.88-.3,1.34,.65,1.85,1.19,12.02,12.69,24,25.4,36.03,38.08,6.12,6.45,12.33,12.81,18.45,19.26,16.41,17.28,32.79,34.59,49.2,51.86,8.41,8.85,16.88,17.64,25.27,26.51,1.39,1.47,2.86,2.11,4.89,2.03,3.61-.14,7.23-.11,10.85,0,1.76,.05,2.59-.54,2.43-2.33-.03-.29,0-.59,0-.88,.11-21.59,.2-43.19,.32-64.78,.13-22.86,.29-45.72,.47-68.58,0-.81-.48-1.98,.52-2.36,1-.39,1.42,.82,1.98,1.4,16.64,17.46,33.24,34.95,49.87,52.43,9.9,10.4,19.84,20.76,29.73,31.17,16.34,17.21,32.66,34.44,48.95,51.69,1.43,1.51,2.9,2.39,5.09,2.26,3.22-.18,6.45-.14,9.67-.01,2,.08,2.7-.56,2.81-2.63,.43-8.59,.39-17.17,.41-25.77,.07-36.26,.15-72.51,.25-108.77,0-.74-.42-1.8,.36-2.17,1.02-.49,1.43,.7,1.98,1.28,10.29,10.84,20.55,21.7,30.83,32.54,16.4,17.28,32.8,34.56,49.22,51.82,9.82,10.33,19.68,20.63,29.51,30.95,6.6,6.93,13.24,13.82,19.77,20.82,1.24,1.33,2.48,1.95,4.31,1.93,7.23-.08,14.47-.16,21.7,.03,2.84,.08,3.64-.78,3.64-3.61-.09-31.86-.06-63.73-.06-95.59q0-4.09,4.22-4.09,6.34,0,6.34-6.35c0-72.91,.02-145.83-.07-218.74,0-3.1,1.02-3.77,3.87-3.69,6.55,.18,6.55,.05,6.55-6.64,0-36.07,0-72.13,0-108.2q0-3.85,3.74-3.85c11.63,0,23.27,.1,34.9-.07,2.75-.04,3.44,.74,3.43,3.41-.08,37.04-.06,74.09-.06,111.13q0,4.28,4.28,4.28,7.23,0,7.23,7.24c0,72.42,0,144.84,0,217.26q0,4.22,4.07,4.22,5.54,0,5.54,5.6c0,31.28,0,62.55,0,93.83,0,3.79,0,3.73,3.89,3.81,9.47,.19,18.97-.62,28.41,.42,10.04,1.11,19.23,9.4,21.75,19.2,.76,2.95,1.13,5.91,1.13,8.98-.03,74.09-.02,148.17-.02,222.26,0,15.19-11.95,27.19-27.07,27.19-103.53,0-207.05,0-310.58,0Z"/>
  <path class="cls-1" d="M182.03,277.21c0-41.64,.02-83.28-.05-124.91,0-2.56,.45-3.49,3.32-3.48,31.19,.12,62.37,.06,93.56,.08,15.45,.01,30.87,.62,46.05,3.74,16.9,3.48,32.63,9.44,44.47,22.82,7.15,8.08,11.38,17.6,13.55,28.13,2.71,13.19,2.85,26.35-.12,39.5-4.21,18.65-15.38,31.84-32.16,40.54-5.9,3.06-12.04,5.56-18.49,7.22-2.36,.61-2.83,1.41-1.3,3.56,11.64,16.38,23.17,32.84,34.75,49.27,14.22,20.18,28.46,40.34,42.65,60.54,.5,.71,1.72,1.41,1.03,2.49-.53,.83-1.63,.37-2.47,.37-21.31,.02-42.62-.02-63.94,.07-2.11,0-3.35-.68-4.52-2.39-23.06-33.76-46.18-67.47-69.25-101.22-1.33-1.95-2.8-2.93-5.28-2.83-4.68,.2-9.38,.06-14.08,.06q-3.96,0-3.96,3.86c0,25.02,0,50.04,0,75.07,0,7.82-.07,15.64,.05,23.46,.03,2.23-.72,2.83-2.87,2.82-19.45-.07-38.91-.1-58.36,.03-2.82,.02-2.6-1.43-2.6-3.28,.02-41.83,.01-83.67,.01-125.5Zm63.76-53.18c0,10.75,.08,21.5-.06,32.25-.04,2.77,.69,3.77,3.59,3.69,9.08-.26,18.17-.28,27.25-.33,7.06-.05,14.06-.53,20.81-2.75,10.15-3.34,17.87-9.24,20.23-20.28,1.77-8.29,1.77-16.69,.15-24.99-.9-4.63-2.83-8.89-6.22-12.39-5.77-5.95-13.16-8.23-21.02-9.23-14-1.77-28.09-.92-42.14-1.27-2.09-.05-2.65,.74-2.63,2.75,.08,10.85,.04,21.7,.04,32.54Z"/>
  <path class="cls-1" d="M1099.77,153.58c10.95,0,21.9,.04,32.85-.04,2.12-.02,3.2,.41,3.92,2.75,4,13.15,8.27,26.22,12.43,39.32,5.28,16.62,10.55,33.24,15.82,49.87,5.35,16.91,10.67,33.83,16.03,50.74,4.51,14.21,9.09,28.41,13.6,42.62,4.84,15.23,9.62,30.48,14.44,45.72,1.85,5.85,3.71,11.7,5.6,17.54,.95,2.92,.67,3.33-2.5,3.34-20.82,0-41.64-.04-62.47,.06-2.3,.01-3.13-.94-3.58-2.87-2.84-12.06-5.69-24.11-8.54-36.16-.83-3.51-1.73-7.01-2.53-10.52-.42-1.84-1.46-2.45-3.35-2.44-22.97,.05-45.95,.08-68.92-.03-2.53-.01-3.26,1.16-3.58,3.19-1.23,7.8-2.46,15.61-3.68,23.42-1.22,7.81-2.48,15.62-3.62,23.44-.32,2.2-1.83,1.91-3.27,1.92-11.24,0-22.48,0-33.73,0-9.19,0-18.38-.07-27.57,.05-2.48,.03-2.82-.82-2.14-2.93,5.68-17.72,11.34-35.45,16.96-53.2,5.32-16.81,10.54-33.64,15.87-50.45,5.27-16.62,10.66-33.21,15.93-49.83,4.51-14.21,8.89-28.46,13.38-42.67,4.46-14.12,9-28.21,13.51-42.31,.89-2.78,1.98-5.53,2.6-8.37,.43-1.97,1.48-2.16,3.1-2.16,11.14,.04,22.29,.02,33.43,.02Zm-.33,66.88c-1.05,.7-1.14,1.51-1.33,2.25-1.41,5.37-2.82,10.75-4.2,16.13-2.94,11.42-5.84,22.86-8.8,34.28-2.88,11.13-5.8,22.26-8.71,33.39-.47,1.81-.11,2.72,2.04,2.71,13.87-.06,27.74-.04,41.62,0,1.71,0,2.33-.56,1.88-2.28-2.5-9.51-4.98-19.03-7.45-28.56-2.57-9.9-5.11-19.8-7.68-29.7-2.42-9.3-4.86-18.6-7.37-28.2Z"/>
  <path class="cls-1" d="M612.18,405.43c-10.46,0-20.92-.05-31.38,.04-2.09,.02-3.06-.48-3.59-2.7-3.64-15.48-7.5-30.91-11.16-46.39-.5-2.13-1.36-2.89-3.53-2.88-22.97,.06-45.94,.05-68.92,0-1.98,0-2.91,.46-3.24,2.67-2.28,15.04-4.73,30.06-7.13,45.09q-.66,4.17-4.94,4.17c-20.23,.01-40.47,0-60.7,.08-1.95,0-2.16-.57-1.63-2.21,4.89-15.22,9.78-30.44,14.6-45.68,6.44-20.36,12.77-40.75,19.22-61.11,5.71-18.03,11.54-36.02,17.25-54.05,7.21-22.78,14.35-45.58,21.53-68.37,1.9-6.04,3.88-12.06,5.71-18.13,.55-1.82,1.52-2.42,3.38-2.42,22.29,.05,44.58,.08,66.86-.03,2.37-.01,2.76,1.37,3.26,2.93,3.26,10.31,6.47,20.65,9.74,30.96,6.46,20.34,12.99,40.66,19.43,61.01,5.7,18.02,11.29,36.09,16.99,54.11,4.09,12.92,8.33,25.79,12.44,38.7,4.82,15.14,9.56,30.3,14.33,45.46,1.7,5.39,3.26,10.83,5.11,16.17,.78,2.25,.16,2.63-1.96,2.61-10.56-.08-21.11-.03-31.67-.03Zm-82.34-184.8c-2.19,8.31-4.29,16.1-6.3,23.92-5.26,20.49-10.42,41-15.77,61.46-.7,2.69-.05,3.22,2.47,3.21,13.39-.07,26.79-.08,40.18,0,2.45,.02,3.13-.7,2.47-3.08-1.58-5.64-3.03-11.31-4.49-16.97-5.23-20.31-10.37-40.64-15.73-60.92-.64-2.43-.53-5.26-2.83-7.62Z"/>
  <path class="cls-1" d="M825.03,659.24c-.69-16.56,.71-32.99,3.89-49.22,5.99-30.59,18.16-58.51,36.81-83.57,19.03-25.58,42.85-45.82,69.49-63,2.14-1.38,2.78-.33,3.71,1.21,7.5,12.45,15.02,24.88,22.56,37.3,15.65,25.75,31.32,51.49,46.98,77.24,4.51,7.42,8.99,14.85,13.56,22.24,.98,1.58,.88,2.57-.43,4.02-12.65,13.87-21.7,29.74-25.94,48.13-1.54,6.66-2.61,13.43-2.64,20.3-.01,2.13-.83,2.74-2.83,2.49-1.74-.22-3.5-.25-5.26-.27-22.18-.2-44.36-.24-66.54-.61-15.82-.27-31.65-.29-47.46-.65-14.46-.33-28.91-.36-43.37-.41-2.09,0-2.52-.9-2.52-2.59,0-4.2,0-8.4,0-12.6Z"/>
  <path class="cls-1" d="M1240.36,673.36c-19.14,.39-38.28,.48-57.42,.76-14.75,.21-29.5,.29-44.25,.43-16.8,.16-33.59,.39-50.39,.72-2.7,.05-3.61-.86-3.7-3.46-.83-23.58-9.29-44.22-24.17-62.36-.87-1.06-1.73-2.12-2.62-3.15-3.25-3.78-3.22-3.76-.52-8.21,21.65-35.67,43.28-71.35,64.92-107.02,5.51-9.09,11.06-18.15,16.54-27.26,1.06-1.77,1.99-2.44,4.04-1.12,34.6,22.25,63.97,49.61,84.15,85.95,9.81,17.67,16.68,36.41,20.95,56.2,4.08,18.91,5.45,38.01,5.25,57.28-.03,3.11-.46,6.22-.59,9.33-.06,1.57-.8,1.97-2.22,1.95-3.32-.06-6.65-.02-9.97-.02Z"/>
  <path class="cls-1" d="M876.02,407.79c-15.05-.05-30.08-.55-44.91-3.29-21.09-3.89-38.91-13.56-52.67-30.26-3.17-3.85-6.08-7.88-8.96-11.94-1.05-1.48-1.04-2.43,.6-3.58,7.76-5.44,15.43-10.99,23.12-16.53,.92-.66,1.74-1.45,2.63,0,5.81,9.42,15.07,13.87,25.06,17.16,11.29,3.72,22.99,5.17,34.78,6.16,7.02,.59,14.05,.72,21.07,.48,10.13-.34,19.62-2.82,27.84-9.2,12.15-9.42,13.51-32.81-3.39-41.57-9.83-5.1-20.16-8.79-30.5-12.58-17.77-6.5-36.09-11.33-53.9-17.72-8.93-3.21-17.47-7.21-24.83-13.43-7.69-6.5-12.49-14.77-14.62-24.43-3.1-14.08-2.77-28.16,1.98-41.89,7.31-21.17,21.8-35.92,41.68-45.65,13.78-6.75,28.4-9.99,43.71-10.67,18.82-.84,37.49,.02,55.73,5.06,16.18,4.47,29.91,13.14,41.26,25.53,1.85,2.01,3.53,4.17,5.37,6.19,1.17,1.28,1.26,2.16-.31,3.26-8.57,5.98-17.09,12.02-25.59,18.09-1.15,.82-1.85,.67-2.69-.36-6.02-7.44-14.5-10.6-23.25-13.25-16.03-4.87-32.48-6.54-49.17-6.38-16.73,.16-30.22,11.09-33.78,27.42-2.19,10.05,2.63,20.01,13.03,26.6,7.17,4.54,15.08,7.22,23.35,8.97,10.12,2.15,20.2,4.45,30.34,6.5,9.2,1.86,18.32,3.97,27.05,7.48,11.39,4.58,22.37,9.99,30.84,19.13,11.33,12.24,17.48,26.85,18.59,43.53,1.18,17.8-5.71,32.79-16.69,46.11-12.69,15.4-28.84,25.86-47.94,31.56-5.59,1.67-11.41,2.48-17.29,2.92-5.85,.44-11.69,.57-17.55,.59Z"/>
  <path class="cls-1" d="M1051.3,862.68c-12.82,.74-25.58-.25-38.26-1.94-11.8-1.57-23.38-4.26-34.81-7.67-16.39-4.89-32.09-11.43-47.4-19.01-2.31-1.14-2.43-2.02-1.19-4.12,13.02-22.09,25.93-44.24,38.9-66.37,13.06-22.29,26.18-44.55,39.19-66.88,1.08-1.85,1.99-2.25,4.14-1.74,12.8,3.07,25.76,4.28,38.93,3.22,6.15-.5,12.21-1.41,18.23-2.69,1.68-.36,2.5,.17,3.31,1.49,13.76,22.34,27.54,44.67,41.32,67,12.59,20.42,25.18,40.85,37.77,61.27,.92,1.49,1.69,3.11,2.78,4.46,1.59,1.97,.83,3.05-1.05,4.03-13.17,6.82-26.66,12.92-40.75,17.61-15.9,5.28-32.18,8.76-48.84,10.45-4.07,.41-8.17,.59-12.26,.87Z"/>
  <path class="cls-1" d="M1063.94,655.69c0,13.3-10.71,23.98-23.99,23.94-13.1-.05-23.69-10.59-23.92-23.81-.22-13.02,10.75-24.05,23.94-24.08,13.28-.03,23.97,10.65,23.97,23.95Z"/>
  <path class="cls-1" d="M705.66,118.54c-7.1,.15-13.45-1.93-19-6.38-7.56-6.06-8.39-16.71-1.88-23.85,9.86-10.81,31.33-11.01,41.36-.39,7.4,7.84,6.19,18.8-2.88,25.33-5.23,3.76-11.16,5.43-17.6,5.3Z"/>
  <path class="cls-2" d="M245.79,224.03c0-10.85,.04-21.7-.04-32.54-.02-2.01,.54-2.8,2.63-2.75,14.05,.35,28.15-.51,42.14,1.27,7.86,.99,15.26,3.28,21.02,9.23,3.39,3.49,5.32,7.76,6.22,12.39,1.62,8.31,1.62,16.7-.15,24.99-2.36,11.04-10.07,16.94-20.23,20.28-6.76,2.22-13.75,2.7-20.81,2.75-9.09,.06-18.17,.08-27.25,.33-2.9,.08-3.63-.92-3.59-3.69,.14-10.75,.06-21.5,.06-32.25Z"/>
  <path class="cls-2" d="M1099.44,220.46c2.51,9.6,4.96,18.9,7.37,28.2,2.57,9.9,5.11,19.8,7.68,29.7,2.47,9.52,4.95,19.04,7.45,28.56,.45,1.72-.17,2.29-1.88,2.28-13.87-.03-27.74-.05-41.62,0-2.16,0-2.52-.91-2.04-2.71,2.91-11.13,5.83-22.25,8.71-33.39,2.95-11.42,5.86-22.85,8.8-34.28,1.38-5.38,2.79-10.75,4.2-16.13,.19-.74,.28-1.55,1.33-2.25Z"/>
  <path class="cls-2" d="M529.84,220.63c2.3,2.36,2.19,5.2,2.83,7.62,5.36,20.28,10.5,40.61,15.73,60.92,1.46,5.67,2.91,11.34,4.49,16.97,.67,2.38-.01,3.09-2.47,3.08-13.39-.09-26.79-.08-40.18,0-2.52,.01-3.18-.52-2.47-3.21,5.35-20.46,10.51-40.98,15.77-61.46,2.01-7.81,4.11-15.61,6.3-23.92Z"/>
</svg>